<?xml version="1.0" encoding="UTF-8"?>
<svg xmlns="http://www.w3.org/2000/svg" xmlns:xlink="http://www.w3.org/1999/xlink" viewBox="0 0 64 64" version="1.1" width="128px" height="128px">
<g id="surface1">
<path style=" fill:#72CAAF;" d="M 7 55.648438 L 7 8.351563 C 6.988281 7.628906 7.367188 6.960938 7.988281 6.597656 C 8.609375 6.234375 9.375 6.230469 10 6.589844 L 53.738281 30.238281 C 54.386719 30.589844 54.789063 31.265625 54.789063 32 C 54.789063 32.734375 54.386719 33.410156 53.738281 33.761719 L 10 57.410156 C 9.375 57.769531 8.609375 57.765625 7.988281 57.402344 C 7.367188 57.039063 6.988281 56.371094 7 55.648438 Z "/>
<path style=" fill:#97E0BB;" d="M 9.5 6 C 10.878906 6 12 7.121094 12 8.5 L 12 55.5 C 12 56.878906 10.878906 58 9.5 58 C 8.121094 58 7 56.878906 7 55.5 L 7 8.5 C 7 7.121094 8.121094 6 9.5 6 Z "/>
<path style=" fill:#8D6C9F;" d="M 37.859375 36.5 L 17.53125 47 C 17.148438 47.226563 16.960938 47.675781 17.070313 48.105469 C 17.179688 48.535156 17.558594 48.84375 18 48.859375 C 18.160156 48.859375 18.316406 48.824219 18.460938 48.75 L 38.78125 38.269531 C 39.273438 38.015625 39.464844 37.410156 39.210938 36.921875 C 38.957031 36.429688 38.351563 36.234375 37.859375 36.488281 Z "/>
<path style=" fill:#8D6C9F;" d="M 44.5 33.070313 L 41.601563 34.558594 C 41.1875 34.769531 40.976563 35.238281 41.085938 35.6875 C 41.195313 36.136719 41.597656 36.453125 42.058594 36.449219 C 42.21875 36.449219 42.378906 36.414063 42.519531 36.339844 L 45.421875 34.851563 C 45.910156 34.597656 46.105469 33.992188 45.851563 33.5 C 45.597656 33.007813 44.992188 32.816406 44.5 33.070313 Z "/>
<path style=" fill:#8D6C9F;" d="M 54.179688 29.320313 L 10.390625 5.671875 C 9.464844 5.183594 8.351563 5.21875 7.453125 5.757813 C 6.558594 6.296875 6.007813 7.265625 6 8.308594 L 6 55.609375 C 6 56.667969 6.554688 57.648438 7.464844 58.191406 C 8.371094 58.730469 9.5 58.753906 10.429688 58.25 L 54.179688 34.601563 C 55.148438 34.078125 55.753906 33.0625 55.753906 31.960938 C 55.753906 30.855469 55.148438 29.84375 54.179688 29.320313 Z M 53.179688 32.839844 L 13.941406 54.058594 C 13.960938 54.039063 13.980469 54.019531 14 54 C 14 53.449219 13.550781 53 13 53 L 11 53 C 10.449219 53 10 53.449219 10 54 C 10 54.550781 10.449219 55 11 55 L 12.300781 55 L 9.441406 56.488281 C 9.132813 56.640625 8.769531 56.625 8.476563 56.445313 C 8.1875 56.265625 8.007813 55.953125 8 55.609375 L 8 8.308594 C 8 7.957031 8.1875 7.628906 8.488281 7.449219 C 8.644531 7.359375 8.820313 7.308594 9 7.308594 C 9.164063 7.3125 9.324219 7.351563 9.46875 7.429688 L 10.570313 8 C 10.019531 8.117188 9.667969 8.664063 9.785156 9.214844 C 9.902344 9.765625 10.449219 10.117188 11 10 L 13 10 C 13.246094 10 13.488281 9.90625 13.671875 9.738281 L 53.269531 31.121094 C 53.59375 31.292969 53.796875 31.632813 53.796875 32 C 53.796875 32.367188 53.59375 32.707031 53.269531 32.878906 Z "/>
<path style=" fill:#8D6C9F;" d="M 13 23 L 11 23 C 10.449219 23 10 23.449219 10 24 C 10 24.550781 10.449219 25 11 25 L 13 25 C 13.550781 25 14 24.550781 14 24 C 14 23.449219 13.550781 23 13 23 Z "/>
<path style=" fill:#8D6C9F;" d="M 13 28 L 11 28 C 10.449219 28 10 28.449219 10 29 C 10 29.550781 10.449219 30 11 30 L 13 30 C 13.550781 30 14 29.550781 14 29 C 14 28.449219 13.550781 28 13 28 Z "/>
<path style=" fill:#8D6C9F;" d="M 13 33 L 11 33 C 10.449219 33 10 33.449219 10 34 C 10 34.550781 10.449219 35 11 35 L 13 35 C 13.550781 35 14 34.550781 14 34 C 14 33.449219 13.550781 33 13 33 Z "/>
<path style=" fill:#8D6C9F;" d="M 13 38 L 11 38 C 10.449219 38 10 38.449219 10 39 C 10 39.550781 10.449219 40 11 40 L 13 40 C 13.550781 40 14 39.550781 14 39 C 14 38.449219 13.550781 38 13 38 Z "/>
<path style=" fill:#8D6C9F;" d="M 13 43 L 11 43 C 10.449219 43 10 43.449219 10 44 C 10 44.550781 10.449219 45 11 45 L 13 45 C 13.550781 45 14 44.550781 14 44 C 14 43.449219 13.550781 43 13 43 Z "/>
<path style=" fill:#8D6C9F;" d="M 13 48 L 11 48 C 10.449219 48 10 48.449219 10 49 C 10 49.550781 10.449219 50 11 50 L 13 50 C 13.550781 50 14 49.550781 14 49 C 14 48.449219 13.550781 48 13 48 Z "/>
<path style=" fill:#8D6C9F;" d="M 13 13 L 11 13 C 10.449219 13 10 13.449219 10 14 C 10 14.550781 10.449219 15 11 15 L 13 15 C 13.550781 15 14 14.550781 14 14 C 14 13.449219 13.550781 13 13 13 Z "/>
<path style=" fill:#8D6C9F;" d="M 13 18 L 11 18 C 10.449219 18 10 18.449219 10 19 C 10 19.550781 10.449219 20 11 20 L 13 20 C 13.550781 20 14 19.550781 14 19 C 14 18.449219 13.550781 18 13 18 Z "/>
</g>
</svg>
