<?xml version="1.0" encoding="UTF-8"?>
<svg xmlns="http://www.w3.org/2000/svg" xmlns:xlink="http://www.w3.org/1999/xlink" viewBox="0 0 64 64" version="1.1" width="128px" height="128px">
<g id="surface1">
<path style=" fill:#72CAAF;" d="M 17 9 L 27 9 L 27 55 L 17 55 Z "/>
<path style=" fill:#72CAAF;" d="M 37 9 L 47 9 L 47 55 L 37 55 Z "/>
<path style=" fill:#97E0BB;" d="M 19.5 9 C 20.878906 9 22 10.121094 22 11.5 L 22 52.5 C 22 53.878906 20.878906 55 19.5 55 C 18.121094 55 17 53.878906 17 52.5 L 17 11.5 C 17 10.121094 18.121094 9 19.5 9 Z "/>
<path style=" fill:#8D6C9F;" d="M 23 11 L 21 11 C 20.449219 11 20 11.449219 20 12 C 20 12.550781 20.449219 13 21 13 L 23 13 C 23.550781 13 24 12.550781 24 12 C 24 11.449219 23.550781 11 23 11 Z "/>
<path style=" fill:#8D6C9F;" d="M 23 26 L 21 26 C 20.449219 26 20 26.449219 20 27 C 20 27.550781 20.449219 28 21 28 L 23 28 C 23.550781 28 24 27.550781 24 27 C 24 26.449219 23.550781 26 23 26 Z "/>
<path style=" fill:#8D6C9F;" d="M 23 31 L 21 31 C 20.449219 31 20 31.449219 20 32 C 20 32.550781 20.449219 33 21 33 L 23 33 C 23.550781 33 24 32.550781 24 32 C 24 31.449219 23.550781 31 23 31 Z "/>
<path style=" fill:#8D6C9F;" d="M 23 36 L 21 36 C 20.449219 36 20 36.449219 20 37 C 20 37.550781 20.449219 38 21 38 L 23 38 C 23.550781 38 24 37.550781 24 37 C 24 36.449219 23.550781 36 23 36 Z "/>
<path style=" fill:#8D6C9F;" d="M 23 41 L 21 41 C 20.449219 41 20 41.449219 20 42 C 20 42.550781 20.449219 43 21 43 L 23 43 C 23.550781 43 24 42.550781 24 42 C 24 41.449219 23.550781 41 23 41 Z "/>
<path style=" fill:#8D6C9F;" d="M 23 46 L 21 46 C 20.449219 46 20 46.449219 20 47 C 20 47.550781 20.449219 48 21 48 L 23 48 C 23.550781 48 24 47.550781 24 47 C 24 46.449219 23.550781 46 23 46 Z "/>
<path style=" fill:#8D6C9F;" d="M 23 51 L 21 51 C 20.449219 51 20 51.449219 20 52 C 20 52.550781 20.449219 53 21 53 L 23 53 C 23.550781 53 24 52.550781 24 52 C 24 51.449219 23.550781 51 23 51 Z "/>
<path style=" fill:#8D6C9F;" d="M 23 16 L 21 16 C 20.449219 16 20 16.449219 20 17 C 20 17.550781 20.449219 18 21 18 L 23 18 C 23.550781 18 24 17.550781 24 17 C 24 16.449219 23.550781 16 23 16 Z "/>
<path style=" fill:#8D6C9F;" d="M 23 21 L 21 21 C 20.449219 21 20 21.449219 20 22 C 20 22.550781 20.449219 23 21 23 L 23 23 C 23.550781 23 24 22.550781 24 22 C 24 21.449219 23.550781 21 23 21 Z "/>
<path style=" fill:#8D6C9F;" d="M 26 8 L 18 8 C 16.894531 8 16 8.894531 16 10 L 16 54 C 16 55.105469 16.894531 56 18 56 L 26 56 C 27.105469 56 28 55.105469 28 54 L 28 10 C 28 8.894531 27.105469 8 26 8 Z M 18 54 L 18 10 L 26 10 L 26 54 Z "/>
<path style=" fill:#8D6C9F;" d="M 46 8 L 38 8 C 36.894531 8 36 8.894531 36 10 L 36 54 C 36 55.105469 36.894531 56 38 56 L 46 56 C 47.105469 56 48 55.105469 48 54 L 48 10 C 48 8.894531 47.105469 8 46 8 Z M 38 54 L 38 10 L 46 10 L 46 54 Z "/>
</g>
</svg>
