<?xml version="1.0" encoding="UTF-8"?>
<svg xmlns="http://www.w3.org/2000/svg" xmlns:xlink="http://www.w3.org/1999/xlink" viewBox="0 0 64 64" version="1.1" width="128px" height="128px">
<g id="surface1">
<path style=" fill:#72CAAF;" d="M 28.101563 52.730469 L 58.101563 32.839844 C 58.65625 32.46875 58.992188 31.84375 58.992188 31.175781 C 58.992188 30.503906 58.65625 29.878906 58.101563 29.511719 L 28.101563 9.28125 C 27.488281 8.875 26.703125 8.839844 26.054688 9.1875 C 25.410156 9.535156 25.003906 10.207031 25 10.941406 L 25 51.058594 C 25 51.796875 25.402344 52.472656 26.050781 52.820313 C 26.699219 53.167969 27.484375 53.132813 28.101563 52.730469 Z "/>
<path style=" fill:#5DBC9D;" d="M 50.238281 32.390625 L 31.140625 44.699219 C 30.03125 45.410156 29.691406 46.875 30.378906 48 C 30.71875 48.558594 31.265625 48.960938 31.902344 49.109375 C 32.539063 49.257813 33.210938 49.144531 33.761719 48.789063 L 52.890625 36.5 C 54 35.785156 54.335938 34.3125 53.640625 33.191406 C 53.304688 32.621094 52.753906 32.214844 52.109375 32.066406 C 51.46875 31.914063 50.792969 32.03125 50.238281 32.390625 Z "/>
<path style=" fill:#72CAAF;" d="M 11 8.980469 L 17 8.980469 C 18.105469 8.980469 19 9.875 19 10.980469 L 19 50.980469 C 19 52.085938 18.105469 52.980469 17 52.980469 L 11 52.980469 C 9.894531 52.980469 9 52.085938 9 50.980469 L 9 10.980469 C 9 9.875 9.894531 8.980469 11 8.980469 Z "/>
<path style=" fill:#97E0BB;" d="M 8.988281 9.011719 L 13.988281 9.011719 L 13.988281 53.011719 L 8.988281 53.011719 Z "/>
<path style=" fill:#8D6C9F;" d="M 58.699219 28.679688 L 28.699219 8.449219 C 27.777344 7.816406 26.582031 7.746094 25.59375 8.269531 C 24.609375 8.792969 23.992188 9.824219 24 10.941406 L 24 51.058594 C 24 52.164063 24.605469 53.183594 25.582031 53.703125 C 26.554688 54.226563 27.738281 54.171875 28.660156 53.558594 L 58.660156 33.671875 C 59.496094 33.113281 60 32.175781 60 31.171875 C 60 30.164063 59.496094 29.226563 58.660156 28.671875 Z M 57.570313 32 L 27.570313 51.890625 C 27.261719 52.101563 26.863281 52.128906 26.53125 51.953125 C 26.203125 51.777344 25.996094 51.433594 26 51.058594 L 26 10.941406 C 26 10.570313 26.203125 10.234375 26.53125 10.058594 C 26.675781 9.980469 26.835938 9.941406 27 9.941406 C 27.195313 9.941406 27.386719 10 27.550781 10.109375 L 57.550781 30.339844 C 57.828125 30.527344 57.992188 30.835938 57.992188 31.171875 C 57.992188 31.503906 57.828125 31.8125 57.550781 32 Z "/>
<path style=" fill:#8D6C9F;" d="M 48.828125 32.328125 L 47.101563 33.441406 C 46.777344 33.625 46.585938 33.96875 46.597656 34.339844 C 46.605469 34.707031 46.820313 35.042969 47.152344 35.207031 C 47.484375 35.367188 47.878906 35.335938 48.179688 35.121094 L 49.910156 34 C 50.230469 33.816406 50.425781 33.472656 50.414063 33.101563 C 50.402344 32.730469 50.1875 32.398438 49.855469 32.234375 C 49.523438 32.070313 49.128906 32.105469 48.828125 32.320313 Z "/>
<path style=" fill:#8D6C9F;" d="M 43.621094 35.671875 L 31.558594 43.398438 C 31.238281 43.582031 31.042969 43.929688 31.054688 44.296875 C 31.066406 44.667969 31.28125 45 31.613281 45.164063 C 31.945313 45.328125 32.339844 45.296875 32.640625 45.078125 L 44.699219 37.351563 C 45.019531 37.167969 45.214844 36.820313 45.203125 36.453125 C 45.191406 36.082031 44.980469 35.75 44.648438 35.585938 C 44.316406 35.421875 43.921875 35.453125 43.621094 35.671875 Z "/>
<path style=" fill:#8D6C9F;" d="M 15 22 L 13 22 C 12.449219 22 12 22.449219 12 23 C 12 23.550781 12.449219 24 13 24 L 15 24 C 15.550781 24 16 23.550781 16 23 C 16 22.449219 15.550781 22 15 22 Z "/>
<path style=" fill:#8D6C9F;" d="M 15 27 L 13 27 C 12.449219 27 12 27.449219 12 28 C 12 28.550781 12.449219 29 13 29 L 15 29 C 15.550781 29 16 28.550781 16 28 C 16 27.449219 15.550781 27 15 27 Z "/>
<path style=" fill:#8D6C9F;" d="M 15 32 L 13 32 C 12.449219 32 12 32.449219 12 33 C 12 33.550781 12.449219 34 13 34 L 15 34 C 15.550781 34 16 33.550781 16 33 C 16 32.449219 15.550781 32 15 32 Z "/>
<path style=" fill:#8D6C9F;" d="M 15 37 L 13 37 C 12.449219 37 12 37.449219 12 38 C 12 38.550781 12.449219 39 13 39 L 15 39 C 15.550781 39 16 38.550781 16 38 C 16 37.449219 15.550781 37 15 37 Z "/>
<path style=" fill:#8D6C9F;" d="M 15 42 L 13 42 C 12.449219 42 12 42.449219 12 43 C 12 43.550781 12.449219 44 13 44 L 15 44 C 15.550781 44 16 43.550781 16 43 C 16 42.449219 15.550781 42 15 42 Z "/>
<path style=" fill:#8D6C9F;" d="M 15 47 L 13 47 C 12.449219 47 12 47.449219 12 48 C 12 48.550781 12.449219 49 13 49 L 15 49 C 15.550781 49 16 48.550781 16 48 C 16 47.449219 15.550781 47 15 47 Z "/>
<path style=" fill:#8D6C9F;" d="M 15 12 L 13 12 C 12.449219 12 12 12.449219 12 13 C 12 13.550781 12.449219 14 13 14 L 15 14 C 15.550781 14 16 13.550781 16 13 C 16 12.449219 15.550781 12 15 12 Z "/>
<path style=" fill:#8D6C9F;" d="M 15 17 L 13 17 C 12.449219 17 12 17.449219 12 18 C 12 18.550781 12.449219 19 13 19 L 15 19 C 15.550781 19 16 18.550781 16 18 C 16 17.449219 15.550781 17 15 17 Z "/>
<path style=" fill:#8D6C9F;" d="M 17 8 L 11 8 C 9.34375 8 8 9.34375 8 11 L 8 51 C 8 52.65625 9.34375 54 11 54 L 17 54 C 18.65625 54 20 52.65625 20 51 L 20 11 C 20 9.34375 18.65625 8 17 8 Z M 18 51 C 18 51.550781 17.550781 52 17 52 L 11 52 C 10.449219 52 10 51.550781 10 51 L 10 11 C 10 10.449219 10.449219 10 11 10 L 17 10 C 17.550781 10 18 10.449219 18 11 Z "/>
</g>
</svg>
